<svg xmlns="http://www.w3.org/2000/svg" width="54.373" height="54.372" viewBox="0 0 54.373 54.372">
  <g id="tik_tok" data-name="tik tok" transform="translate(27.186 27.186)">
    <g id="Group_20" data-name="Group 20" transform="translate(-27.186 -27.186)">
      <path id="Path_375" data-name="Path 375" d="M27.186,0A27.188,27.188,0,1,1,7.964,7.963,27.058,27.058,0,0,1,27.186,0ZM44.919,9.468A25.093,25.093,0,1,0,52.25,27.186,25.044,25.044,0,0,0,44.919,9.468Z" fill="#fff"/>
      <path id="Path_376" data-name="Path 376" d="M51.643,35.413c-.228.022-.457.034-.685.035a7.44,7.44,0,0,1-6.225-3.364V43.539a8.467,8.467,0,1,1-8.466-8.466h0c.177,0,.349.016.523.027v4.172a4.312,4.312,0,1,0-.523,8.59,4.427,4.427,0,0,0,4.495-4.268L40.8,24.138h3.991a7.435,7.435,0,0,0,6.852,6.638v4.637" transform="translate(-12.537 -10.886)" fill="#fff"/>
    </g>
  </g>
</svg>
