<svg xmlns="http://www.w3.org/2000/svg" xmlns:xlink="http://www.w3.org/1999/xlink" width="119.06" height="116.29" viewBox="0 0 119.06 116.29">
  <defs>
    <clipPath id="clip-path">
      <rect id="Rectangle_1" data-name="Rectangle 1" width="119.06" height="116.29" transform="translate(0 0)" fill="none"/>
    </clipPath>
  </defs>
  <g id="Group_2" data-name="Group 2" transform="translate(0 0)">
    <g id="Group_1" data-name="Group 1" clip-path="url(#clip-path)">
      <path id="Path_1" data-name="Path 1" d="M.1,0C.08.63,0,1.25,0,1.88V56.76a59.53,59.53,0,1,0,119.06,0V1.88c0-.64-.07-1.25-.1-1.88Z" fill="#ef4b49"/>
      <path id="Path_2" data-name="Path 2" d="M79.12,68c-.1,1.39-.1,2.73-.1,4.44a.883.883,0,1,1-1.76,0,44.133,44.133,0,0,1,.12-4.64.875.875,0,0,1,1-.85A.889.889,0,0,1,79.12,68m6.86-4.52v8.96a.883.883,0,1,1-1.76,0V64.33a48.708,48.708,0,0,1-6.76-.57.863.863,0,0,1-.69-1.1.943.943,0,0,1,1.14-.61,60.917,60.917,0,0,0,7.17.55.84.84,0,0,1,.9.88m-11.53.1V72.5a.88.88,0,1,1-1.76,0V64.19a14.056,14.056,0,0,1-1.85-.53c-.51-.2-.77-.57-.59-1.08a.824.824,0,0,1,1.14-.51,20.8,20.8,0,0,0,2.26.59.915.915,0,0,1,.8.92m-6.14,1.49-3.12,4.05c.85.67,1.67,1.35,2.46,2.06a.932.932,0,0,1-.41,1.69l-7.37.94c-.57.08-1.02-.16-1.08-.73a.9.9,0,0,1,.85-.94l5.66-.73c-1.75-1.47-3.53-2.95-5.36-4.38-.33-.26-.29-.73-.02-1.14l1.1-1.71-1.4-.39a.807.807,0,0,1-.63-1.12.767.767,0,0,1,1.08-.49l2.44.69c.41.12.86.53.39,1.26l-1.38,2.12,2.42,1.89,2.53-3.44-1.45-.81a.839.839,0,0,1-.45-1.2c.2-.43.61-.61,1.18-.29l2.28,1.24a.855.855,0,0,1,.28,1.43m-11.8,6.8c.51.55.47,1,.06,1.38a.887.887,0,0,1-1.28-.12c-1.96-2.16-3.87-4.32-5.81-6.48l-1.87,6.13a.88.88,0,1,1-1.69-.47l2.26-7.13c-.43-.49-.84-.96-1.28-1.43a.888.888,0,0,1,.02-1.26.864.864,0,0,1,1.26.02c1.47,1.69,2.95,3.4,4.44,5.07l2.36-2.55-1.51-1.36a.807.807,0,0,1-.02-1.14.966.966,0,0,1,1.34-.02l1.81,1.63a1.15,1.15,0,0,1,.08,1.73l-2.87,3.04c.89.99,1.79,1.98,2.7,2.96M36.9,68c-.1,1.39-.1,2.73-.1,4.44a.883.883,0,1,1-1.76,0,44.132,44.132,0,0,1,.12-4.64.879.879,0,1,1,1.74.2m6.86-4.52v8.96a.883.883,0,1,1-1.76,0V64.33a48.708,48.708,0,0,1-6.76-.57.863.863,0,0,1-.69-1.1.943.943,0,0,1,1.14-.61,60.917,60.917,0,0,0,7.17.55.84.84,0,0,1,.9.88" fill="#fff"/>
      <path id="Path_3" data-name="Path 3" d="M78.63,81.16,75.29,89.9a.957.957,0,0,1-1.16.63.833.833,0,0,1-.53-1.14l3.06-8.09-5.2-.18a.745.745,0,0,1-.79-.74V78a.846.846,0,0,1,.86-.92.856.856,0,0,1,.9.92v1.45l5.42.2c.78.02,1.09.67.78,1.51m-9.96,7.76c.51.55.47,1,.06,1.38a.887.887,0,0,1-1.28-.12c-1.96-2.16-3.87-4.32-5.81-6.48l-1.87,6.13a.88.88,0,1,1-1.69-.47l2.26-7.13c-.43-.49-.84-.96-1.28-1.43a.888.888,0,0,1,.02-1.26.864.864,0,0,1,1.26.02c1.47,1.69,2.95,3.4,4.44,5.07l2.36-2.55-1.51-1.36a.807.807,0,0,1-.02-1.14.966.966,0,0,1,1.34-.02l1.81,1.63a1.15,1.15,0,0,1,.08,1.73l-2.87,3.04c.89,1,1.79,1.98,2.7,2.96M55.9,80.63v8.92a.88.88,0,1,1-1.76,0V81.24a14.056,14.056,0,0,1-1.85-.53c-.51-.2-.77-.57-.59-1.08a.824.824,0,0,1,1.14-.51,20.8,20.8,0,0,0,2.26.59.922.922,0,0,1,.8.92m-6.27.06v8.84a.807.807,0,0,1-.86.92.846.846,0,0,1-.9-.92V81.4c-1.79-.1-3.24-.2-4.89-.45-.65-.1-.88-.43-.83-.94a.819.819,0,0,1,.98-.73,55.515,55.515,0,0,0,5.66.47.858.858,0,0,1,.84.94" fill="#fff"/>
      <path id="Path_4" data-name="Path 4" d="M92.72,54.73a1.331,1.331,0,1,0-1.39-1.33,1.362,1.362,0,0,0,1.39,1.33" fill="#fff"/>
      <path id="Path_5" data-name="Path 5" d="M63.78,50.77H56.69a1.33,1.33,0,0,1,0-2.66h7.09a1.33,1.33,0,1,1,0,2.66m25.58,0H82.27a1.33,1.33,0,0,1,0-2.66h7.09a1.33,1.33,0,1,1,0,2.66m3.42,0a1.382,1.382,0,0,1-1.39-1.33,1.274,1.274,0,0,1,1.27-1.33h.13a1.329,1.329,0,0,1,1.33,1.33,1.344,1.344,0,0,1-1.34,1.33" fill="#fff"/>
      <path id="Path_6" data-name="Path 6" d="M99.96,39.8c1.74,1.84,1.43,3.52.15,4.85a3.451,3.451,0,0,1-4.95-.36c-4.03-4.49-7.96-9.03-11.89-13.47L79.6,42.81a3.416,3.416,0,0,1-4.44,2.55,3.141,3.141,0,0,1-2.24-4.34l5.31-15.87c-1.02-1.17-2.09-2.3-3.11-3.42a3.082,3.082,0,0,1,.1-4.64,3.292,3.292,0,0,1,4.9.1c3.52,4.03,6.94,8.06,10.46,12.04l4.03-4.85-3.16-2.96a2.9,2.9,0,0,1,0-4.24,3.408,3.408,0,0,1,5,0l4.44,4.24a3.814,3.814,0,0,1,.26,5.67l-6.22,7.14c1.66,1.9,3.34,3.74,5.03,5.57M69.35,44.96a3.3,3.3,0,0,1-4.75-.87L60.72,37.3l-5.26,6.99a3.446,3.446,0,0,1-4.9.41,3.37,3.37,0,0,1-.2-4.75l7.45-8.83V23.01a28.976,28.976,0,0,1-4.19-.41,3.1,3.1,0,0,1-2.75-3.62,3.021,3.021,0,0,1,3.47-2.65c2.3.2,4.64.36,7.04.46,2.24.1,3.42,1.17,3.42,3.27V31.85l5.21,8.27c1.12,1.83,1.07,3.61-.66,4.84M38.53,38.58V23.68c-4.34-.15-7.7-.26-10.87-.51V39.14Zm6.89-17.25V41.54a2.983,2.983,0,0,1-3.01,3.22l-18.06.92a3.211,3.211,0,0,1-3.57-3.42V22.51l-.51-.05c-2.45-.36-3.78-1.74-3.42-3.93.36-2.09,2.04-2.81,4.13-2.55,6.79.92,15.72,1.28,20.46,1.43a3.836,3.836,0,0,1,3.98,3.92" fill="#fff"/>
    </g>
  </g>
</svg>
