<svg xmlns="http://www.w3.org/2000/svg" width="45.769" height="45.769" viewBox="0 0 45.769 45.769">
  <path id="Icon_awesome-arrow-circle-right" data-name="Icon awesome-arrow-circle-right" d="M24.447,1.562A22.885,22.885,0,1,1,1.562,24.447,22.881,22.881,0,0,1,24.447,1.562ZM21.78,14.813l6.967,6.681H11.9a2.209,2.209,0,0,0-2.215,2.215v1.476A2.209,2.209,0,0,0,11.9,27.4h16.85L21.78,34.081a2.217,2.217,0,0,0-.037,3.165l1.015,1.006a2.205,2.205,0,0,0,3.128,0L38.132,26.016a2.205,2.205,0,0,0,0-3.128L25.887,10.633a2.205,2.205,0,0,0-3.128,0l-1.015,1.006A2.228,2.228,0,0,0,21.78,14.813Z" transform="translate(47.332 47.332) rotate(180)" fill="rgba(255,255,255,0.7)"/>
</svg>
