<svg xmlns="http://www.w3.org/2000/svg" width="54.373" height="54.372" viewBox="0 0 54.373 54.372">
  <g id="Facebook" transform="translate(27.186 27.186)">
    <g id="Group_18" data-name="Group 18" transform="translate(-27.186 -27.186)">
      <g id="Group_17" data-name="Group 17">
        <path id="Path_371" data-name="Path 371" d="M27.186,0A27.187,27.187,0,1,1,7.963,7.963,27.086,27.086,0,0,1,27.186,0ZM44.919,9.468A25.093,25.093,0,1,0,52.25,27.186,25.045,25.045,0,0,0,44.919,9.468Z" transform="translate(0)" fill="#fff"/>
        <path id="Path_372" data-name="Path 372" d="M46.265,32.574V30.346a1.167,1.167,0,0,1,1.22-1.324H50.6V24.265h-4.29c-4.772,0-5.84,3.522-5.84,5.811v2.5H37.7v5.555h2.8V52.009h5.555V38.129h4.109l.181-2.183.331-3.372Z" transform="translate(-17.002 -10.943)" fill="#fff" fill-rule="evenodd"/>
      </g>
    </g>
  </g>
</svg>
