<svg xmlns="http://www.w3.org/2000/svg" width="54.373" height="54.372" viewBox="0 0 54.373 54.372">
  <g id="Instegram" transform="translate(27.186 27.186)">
    <g id="Group_19" data-name="Group 19" transform="translate(-27.186 -27.186)">
      <path id="Path_373" data-name="Path 373" d="M27.186,0A27.188,27.188,0,1,1,7.964,7.963,27.058,27.058,0,0,1,27.186,0ZM44.919,9.468A25.093,25.093,0,1,0,52.25,27.186,25.044,25.044,0,0,0,44.919,9.468Z" fill="#fff"/>
      <path id="Path_374" data-name="Path 374" d="M31.372,38.327A6.962,6.962,0,1,1,38.327,45.3a6.971,6.971,0,0,1-6.955-6.969ZM45.523,24.7H31.147A6.46,6.46,0,0,0,24.7,31.147V45.523a6.47,6.47,0,0,0,6.443,6.442H45.523a6.46,6.46,0,0,0,6.443-6.442V31.147A6.45,6.45,0,0,0,45.523,24.7ZM31.147,26.315H45.523a4.837,4.837,0,0,1,4.832,4.832V45.523a4.837,4.837,0,0,1-4.832,4.831H31.147a4.837,4.837,0,0,1-4.832-4.831V31.147a4.837,4.837,0,0,1,4.832-4.832Zm15.806,2.032a1.415,1.415,0,1,0,1.415,1.415,1.413,1.413,0,0,0-1.415-1.415Zm.165,9.981a8.791,8.791,0,1,0-8.791,8.791,8.791,8.791,0,0,0,8.791-8.791Z" transform="translate(-11.141 -11.141)" fill="#fff" fill-rule="evenodd"/>
    </g>
  </g>
</svg>
