<svg id="Website" xmlns="http://www.w3.org/2000/svg" width="54.562" height="54.561" viewBox="0 0 54.562 54.561">
  <g id="Group_49" data-name="Group 49" transform="translate(0 0)">
    <path id="Path_394" data-name="Path 394" d="M27.281,0A27.283,27.283,0,1,1,7.991,7.991,27.152,27.152,0,0,1,27.281,0ZM45.075,9.5a25.181,25.181,0,1,0,7.356,17.779A25.132,25.132,0,0,0,45.075,9.5Z" transform="translate(0)" fill="#fff"/>
    <path id="Path_395" data-name="Path 395" d="M35.406,52.781A16.847,16.847,0,1,1,52.253,35.934,16.866,16.866,0,0,1,35.406,52.781Zm0-31.288a14.44,14.44,0,1,0,14.44,14.44A14.456,14.456,0,0,0,35.406,21.494Z" transform="translate(-8.331 -8.568)" fill="#fff"/>
    <rect id="Rectangle_31" data-name="Rectangle 31" width="31.287" height="1.203" transform="translate(10.83 26.163)" fill="#fff"/>
    <rect id="Rectangle_32" data-name="Rectangle 32" width="1.203" height="31.287" transform="translate(26.474 11.723)" fill="#fff"/>
    <path id="Path_396" data-name="Path 396" d="M35.171,52.384C28.3,35.57,35.129,22.622,35.2,22.492l1.058.573c-.067.125-6.619,12.6.028,28.863Z" transform="translate(-14.413 -10.096)" fill="#fff"/>
    <path id="Path_397" data-name="Path 397" d="M59.683,52.384l-1.114-.456c6.658-16.291.1-28.739.029-28.862l1.058-.574C59.725,22.622,66.554,35.57,59.683,52.384Z" transform="translate(-26.29 -10.096)" fill="#fff"/>
    <path id="Path_398" data-name="Path 398" d="M36.662,63.217a33.82,33.82,0,0,1-14.7-3.09l.572-1.059c.126.067,12.629,6.62,28.924-.027l.455,1.114A40.2,40.2,0,0,1,36.662,63.217Z" transform="translate(-9.86 -26.502)" fill="#fff"/>
    <path id="Path_399" data-name="Path 399" d="M51.462,36.757c-16.3-6.646-28.8-.094-28.924-.027l-.572-1.059c.129-.069,13.1-6.9,29.95-.028Z" transform="translate(-9.86 -14.625)" fill="#fff"/>
  </g>
</svg>
