<svg xmlns="http://www.w3.org/2000/svg" width="54.582" height="54.581" viewBox="0 0 54.582 54.581">
  <g id="Artwork_6" data-name="Artwork 6" transform="translate(0)">
    <g id="Group_50" data-name="Group 50" transform="translate(0 0)">
      <path id="Path_400" data-name="Path 400" d="M27.291,0a27.293,27.293,0,1,1-19.3,7.994A27.162,27.162,0,0,1,27.291,0Zm17.8,9.5a25.19,25.19,0,1,0,7.359,17.786A25.141,25.141,0,0,0,45.092,9.5Z" fill="#fff"/>
      <path id="Path_401" data-name="Path 401" d="M52.164,33.358a7.48,7.48,0,0,0-1.279-3.3,4.56,4.56,0,0,0-3.178-1.417c-4.456-.328-11.141-.328-11.141-.328h-.036s-6.667,0-11.125.328a4.541,4.541,0,0,0-3.194,1.417,7.488,7.488,0,0,0-1.278,3.3,50.671,50.671,0,0,0-.33,5.355v2.539a49.813,49.813,0,0,0,.33,5.355,7.6,7.6,0,0,0,1.278,3.317,5.217,5.217,0,0,0,3.524,1.416c2.539.259,10.831.346,10.831.346s6.685-.034,11.141-.346a4.483,4.483,0,0,0,3.178-1.416,7.6,7.6,0,0,0,1.279-3.317,52.771,52.771,0,0,0,.311-5.355V38.713c0-2.66-.311-5.355-.311-5.355Zm-10.3,6.288-8.62,4.646V34.964l3.9,2.125Z" transform="translate(-9.249 -12.709)" fill="#fff" fill-rule="evenodd"/>
    </g>
  </g>
</svg>
