<?xml version="1.0" encoding="utf-8"?>
<!-- Generator: Adobe Illustrator 25.4.1, SVG Export Plug-In . SVG Version: 6.00 Build 0)  -->
<svg version="1.1" id="Layer_1" xmlns="http://www.w3.org/2000/svg" xmlns:xlink="http://www.w3.org/1999/xlink" x="0px" y="0px"
	 viewBox="0 0 24 24" style="enable-background:new 0 0 24 24;" xml:space="preserve">
<g id="Layer_2_00000114066133983969887850000013135899761452676286_">
	<g id="Layer_1-2">
		<g id="Group_15">
			<path id="Path_381" d="M6.4,11.1v1.9H2.7v-1.9H6.4z"/>
			<path id="Path_382" d="M8.3,17.2c-0.9,0.6-2,1.5-3,2.2c-0.4-0.5-0.8-1-1.1-1.5c0.9-0.6,2-1.6,3-2.2C7.5,16.2,7.9,16.7,8.3,17.2z"
				/>
			<path id="Path_383" d="M4.2,6c0.4-0.5,0.7-1,1.1-1.5c0.9,0.7,2,1.6,3,2.2c-0.4,0.5-0.7,1-1.1,1.5C6.2,7.6,5.1,6.7,4.2,6z"/>
			<path id="Path_384" d="M19.4,9.2c1,0,1.9,0.8,1.9,1.9v1.9c0,1-0.8,1.9-1.9,1.9l0,0h-0.9v3.8h-1.8v-3.8h-1l-4.6,2.8V6.4l4.6,2.8
				H19.4z M14.8,10.8l-1.9-1.1v4.6l1.9-1l0.4-0.3h4.3v-1.9h-4.3L14.8,10.8z"/>
			<path id="Path_385" d="M8.7,12c0-1.2,0.5-2.3,1.4-3.2v6.2C9.3,14.3,8.8,13.2,8.7,12z"/>
		</g>
	</g>
</g>
</svg>
