<?xml version="1.0" encoding="utf-8"?>
<!-- Generator: Adobe Illustrator 25.4.1, SVG Export Plug-In . SVG Version: 6.00 Build 0)  -->
<svg version="1.1" id="Layer_1" xmlns="http://www.w3.org/2000/svg" xmlns:xlink="http://www.w3.org/1999/xlink" x="0px" y="0px"
	 viewBox="0 0 24 24" style="enable-background:new 0 0 24 24;" xml:space="preserve">
<g id="Layer_2_00000099627803637199117960000006717622640788784034_">
	<g id="Layer_1-2">
		<g id="_">
			<g>
				<path d="M20.4,12.7c-1.8,3-5,4.8-8.4,4.9c-3.5-0.1-6.6-1.9-8.4-4.9c-0.1-0.2-0.2-0.4-0.2-0.7c0-0.2,0.1-0.5,0.2-0.7
					c1.8-3,5-4.8,8.4-4.9c3.4,0.1,6.6,1.9,8.4,4.9c0.1,0.2,0.2,0.4,0.2,0.7C20.6,12.2,20.5,12.5,20.4,12.7z M15.7,8.6
					c1.2,2,0.5,4.7-1.5,5.9c-2,1.2-4.7,0.5-5.9-1.5c-0.4-0.7-0.6-1.4-0.6-2.2c0-0.8,0.2-1.5,0.6-2.2c-1.5,0.8-2.8,2-3.7,3.4
					c1.6,2.6,4.3,4.2,7.4,4.3c3-0.1,5.8-1.7,7.4-4.3C18.5,10.6,17.2,9.4,15.7,8.6L15.7,8.6z M12,7.8c-1.6,0-2.9,1.3-2.9,2.9
					c0,0.3,0.2,0.5,0.5,0.5c0.3,0,0.5-0.2,0.5-0.5c0-1.1,0.9-2,2-2c0.3,0,0.5-0.2,0.5-0.5C12.5,8.1,12.3,7.8,12,7.8L12,7.8L12,7.8z"
					/>
			</g>
		</g>
	</g>
</g>
</svg>
