<?xml version="1.0" encoding="utf-8"?>
<!-- Generator: Adobe Illustrator 25.4.1, SVG Export Plug-In . SVG Version: 6.00 Build 0)  -->
<svg version="1.1" id="Layer_1" xmlns="http://www.w3.org/2000/svg" xmlns:xlink="http://www.w3.org/1999/xlink" x="0px" y="0px"
	 viewBox="0 0 24 24" style="enable-background:new 0 0 24 24;" xml:space="preserve">
<g>
	<path d="M19.2,9.2c-0.9,0-1.6,0.7-1.6,1.6c0,0.1,0,0.3,0.1,0.4L14.9,14c-0.3-0.1-0.6-0.1-0.8,0l-2-2c0.2-0.8-0.3-1.7-1.1-1.9
		s-1.7,0.3-1.9,1.1C9,11.5,9,11.8,9.1,12l-3.8,3.6c-0.8-0.2-1.7,0.3-2,1.1c-0.2,0.8,0.3,1.7,1.1,2s1.7-0.3,2-1.1
		c0.1-0.3,0.1-0.6,0-0.8l3.6-3.6c0.3,0.1,0.6,0.1,0.8,0l2,2c-0.2,0.8,0.3,1.7,1.1,1.9c0.8,0.2,1.7-0.3,1.9-1.1
		c0.1-0.3,0.1-0.6,0-0.8l2.8-2.8c0.8,0.3,1.7,0,2.1-0.9c0.3-0.8,0-1.7-0.9-2.1C19.7,9.2,19.5,9.2,19.2,9.2z"/>
	<polygon points="14.4,9.9 15.2,8.3 16.8,7.6 15.2,6.8 14.4,5.2 13.7,6.8 12,7.6 13.7,8.3 	"/>
	<polygon points="5.3,11.5 5.7,9.9 7.3,9.6 5.7,9.1 5.3,7.6 4.9,9.1 3.3,9.6 4.9,9.9 	"/>
</g>
</svg>
