<svg xmlns="http://www.w3.org/2000/svg" viewBox="0 0 28 21"><g id="Layer_2" data-name="Layer 2"><g id="Layer_1-2" data-name="Layer 1"><path d="M10.18,10.5A5.17,5.17,0,0,1,5.09,5.25,5.17,5.17,0,0,1,10.18,0a5.17,5.17,0,0,1,5.09,5.25A5.17,5.17,0,0,1,10.18,10.5Zm0-7.88A2.6,2.6,0,0,0,7.64,5.25a2.55,2.55,0,1,0,5.09,0A2.6,2.6,0,0,0,10.18,2.62Zm0,10.5c3.4,0,10.18,1.76,10.18,5.25V21H0V18.37C0,14.88,6.78,13.12,10.18,13.12Zm7.64,5.25c-.28-.94-4.21-2.62-7.64-2.62S2.8,17.44,2.55,18.37Zm3.82-3.93V10.5H17.82V7.87h3.82V3.94h2.54V7.87H28V10.5H24.18v3.94Z"/></g></g></svg>