<svg xmlns="http://www.w3.org/2000/svg" viewBox="0 0 28 21"><defs><style>.cls-1{fill:#c71c24;}</style></defs><g id="Layer_2" data-name="Layer 2"><g id="Layer_1-2" data-name="Layer 1"><path class="cls-1" d="M5.2,5.25a5.2,5.2,0,1,1,10.4,0,5.2,5.2,0,1,1-10.4,0Zm2.6,0a2.6,2.6,0,1,0,2.6-2.63A2.62,2.62,0,0,0,7.8,5.25Z"/><path class="cls-1" d="M20.79,18.37V21H0V18.37c0-3.49,6.93-5.25,10.4-5.25S20.79,14.88,20.79,18.37Zm-2.6,0c-.26-.93-4.28-2.62-7.79-2.62s-7.5,1.68-7.8,2.62Z"/><rect class="cls-1" x="20.2" y="7.87" width="7.8" height="2.63"/></g></g></svg>